<svg xmlns="http://www.w3.org/2000/svg" xmlns:xlink="http://www.w3.org/1999/xlink" version="1.1" x="0px" y="0px" viewBox="0 0 100 125" enable-background="new 0 0 100 100" xml:space="preserve"><path d="M83.825,19.756c0,4.601-3.731,8.333-8.331,8.333c-4.602,0-8.332-3.732-8.332-8.333c0-4.602,3.73-8.331,8.332-8.331  C80.094,11.425,83.825,15.155,83.825,19.756z"/><path d="M89.268,33.185c-0.589-1.88-2.346-3.244-4.42-3.244H66.142c-2.075,0-3.832,1.364-4.421,3.244l-5.646,22.589  c-0.384,1.537,0.55,3.096,2.088,3.479c1.546,0.387,3.105-0.548,3.489-2.086l3.714-14.856c0.125-0.496,0.623-0.798,1.113-0.676  c0.491,0.124,0.788,0.625,0.665,1.121l-6.994,27.972l6.55,0.002v14.142c0,2.044,1.658,3.703,3.703,3.703l0,0  c2.045,0,3.703-1.659,3.703-3.703V70.73h2.776v14.142c0,2.044,1.659,3.703,3.704,3.703l0,0c2.045,0,3.702-1.659,3.702-3.703V70.729  l6.549-0.003L83.844,42.75c-0.124-0.495,0.174-0.996,0.666-1.116c0.49-0.12,0.988,0.184,1.113,0.679l3.714,14.854  c0.383,1.538,1.942,2.474,3.48,2.089c1.546-0.387,2.48-1.945,2.097-3.483L89.268,33.185z"/><path d="M34.625,40.125v15.43c0,2.044,1.659,3.703,3.704,3.703c2.044,0,3.703-1.659,3.703-3.703V39.199  c0-5.113-4.146-9.258-9.258-9.258H14.258C9.146,29.941,5,34.086,5,39.199v16.356c0,2.044,1.659,3.703,3.703,3.703  c2.045,0,3.704-1.659,3.704-3.703v-15.43c0-0.512,0.414-0.926,0.925-0.926l0,0c0.513,0,0.926,0.414,0.926,0.926v44.284  c0,2.3,1.866,4.166,4.166,4.166c2.301,0,4.166-1.866,4.166-4.166V60.184c0-0.513,0.415-0.926,0.926-0.926l0,0  c0.511,0,0.926,0.413,0.926,0.926v24.225c0,2.3,1.865,4.166,4.166,4.166c2.301,0,4.166-1.866,4.166-4.166V40.125  c0-0.512,0.414-0.926,0.926-0.926l0,0C34.211,39.199,34.625,39.612,34.625,40.125z"/><path d="M31.848,19.756c0,4.601-3.732,8.333-8.332,8.333c-4.602,0-8.332-3.732-8.332-8.333c0-4.602,3.73-8.331,8.332-8.331  C28.116,11.425,31.848,15.155,31.848,19.756z"/><path d="M50,11.425c-1.136,0-2.057,0.921-2.057,2.057v73.035c0,1.136,0.921,2.057,2.057,2.057c1.136,0,2.058-0.921,2.058-2.057  V13.482C52.058,12.346,51.136,11.425,50,11.425z"/><text x="0" y="115" fill="#000000" font-size="5px" font-weight="bold" font-family="'Helvetica Neue', Helvetica, Arial-Unicode, Arial, Sans-serif">Created by David Courey</text><text x="0" y="120" fill="#000000" font-size="5px" font-weight="bold" font-family="'Helvetica Neue', Helvetica, Arial-Unicode, Arial, Sans-serif">from the Noun Project</text></svg>