<?xml version="1.0" encoding="utf-8"?>
<!-- Generator: Adobe Illustrator 21.1.0, SVG Export Plug-In . SVG Version: 6.00 Build 0)  -->
<svg version="1.1" id="Layer_1" xmlns="http://www.w3.org/2000/svg" xmlns:xlink="http://www.w3.org/1999/xlink" x="0px" y="0px"
	 viewBox="0 0 395.9 198.9" style="enable-background:new 0 0 395.9 198.9;" xml:space="preserve">
<g>
	<path id="XMLID_280_" d="M216.3,133.9c-1.7,0-2.7-1-2.7-3.3c0,0,0-1.5,0-7v-6h5.8v-1.5h-5.8v-6.9h-0.8l-2.9,6.9h-3.4v1.3l3.1,0.2
		v13.6c0,3.4,2.2,4.8,4.8,4.8c1.6,0,3.7-0.5,5.8-2.9l-0.5-0.6C218.7,133.3,217.4,133.9,216.3,133.9"/>
	<path id="XMLID_281_" d="M195.8,116.3c2.1,0,4.3,1.3,4.4,6h-9.9C190.7,118.7,193.1,116.3,195.8,116.3 M196.8,133.6
		c-4.1,0-6.6-3.8-6.6-8.8v-1.3h14.1c-0.5-5.4-3.9-8.6-8.4-8.6c-5.3,0-9.9,4.3-9.9,10.5c0,6,3.6,10.5,9.9,10.5c3.6,0,6.8-1.8,8.5-5.9
		l-1.1-0.4C201.4,133.1,198.7,133.6,196.8,133.6"/>
	<path id="XMLID_311_" d="M231.4,116.3c2.1,0,4.3,1.3,4.4,6H226C226.4,118.7,228.7,116.3,231.4,116.3 M232.4,133.6
		c-4.1,0-6.6-3.8-6.6-8.8v-1.3H240c-0.5-5.4-3.9-8.6-8.4-8.6c-5.3,0-9.9,4.3-9.9,10.5c0,6,3.6,10.5,9.9,10.5c3.6,0,6.8-1.8,8.5-5.9
		l-1.1-0.4C237,133.1,234.3,133.6,232.4,133.6"/>
	<path id="XMLID_316_" d="M290.8,131.5c-0.9,1.7-2.9,2.4-4.3,2.4c-1.7,0-3-1.1-3-3.2c0-2.4,1.7-4.5,7.3-4.9V131.5z M296.3,133.5
		c-1.5,0-1.8-1.5-1.8-3.5l0.1-9.9c0-3.8-3.1-5.2-6.6-5.2c-3.8,0-7.2,1.9-7.2,4.6c0,1.1,0.8,1.9,1.8,1.9c1.5,0,2-1.2,1.8-2.6
		c-0.2-1.7,1-2.7,3.2-2.7c2.4,0,3.1,1.6,3.1,3.8v4.7h-0.3c-6.5,0-11,1.7-11,6.2c0,2.8,2.2,5,5.4,5c2,0,4.3-0.7,6-3.4
		c0.4,2.3,1.9,3.2,3.7,3.2c1.5,0,3.1-0.7,4.4-2.8l-0.6-0.5C297.6,133.3,296.9,133.5,296.3,133.5"/>
	<path id="XMLID_319_" d="M269.7,133.6c-4.3,0-6.7-3.8-6.7-8.8c0-5.6,3.4-8.5,6-8.5c3.9,0,2.4,4,5.5,4c0.8,0,1.7-0.7,1.7-1.8
		c0-2.2-4.1-3.5-6.9-3.5c-6.1,0-10.5,4.3-10.5,10.6c0,5.7,3.5,10.4,9.9,10.4c2.6,0,6.1-0.9,8-5.4l-1.1-0.5
		C273.9,133.3,271.3,133.6,269.7,133.6"/>
	<path id="XMLID_320_" d="M326.1,115c-3.1,0-5.6,1.7-7.1,4.8c-0.7-3.2-2.8-4.8-6-4.8c-3,0-5.4,1.7-6.8,4.5v-3.9l-3.9,0.2l0,19.6h3.9
		v-14.7c1.2-2.2,3.4-3.3,5-3.3c3.4,0,4.2,2.4,4.2,6.1v11.9h3.9v-12.6c0-0.7,0-1.3-0.1-1.8c1.3-2.3,3.4-3.5,5.1-3.5
		c3.4,0,4.2,2.4,4.2,6.1v11.9h3.9v-12.6C332.5,117.4,330.2,115,326.1,115"/>
	<path id="XMLID_321_" d="M254.9,115c-3,0-5.3,2.8-6.2,6.3v-5.6l-3.8,0.2v19.6h3.9v-13.2c0.9-2.7,2.8-4.7,3.8-4.7
		c0.6,0,1.4,1.8,3.1,1.8c1,0,2-0.8,2-2C257.8,116,256.6,115,254.9,115"/>
	<path id="XMLID_322_" d="M172.7,120.6c-1.1,0-2.1-0.2-3.2-0.4v-14.4c1.1-0.2,2.3-0.2,3.5-0.2c4.1,0,8.2,1.5,8.2,7.5
		C181.1,118.4,177.4,120.6,172.7,120.6 M172.8,104c-1.7,0-3.5,0-7.6,0.1v31.4h4.3v-14.1c1.8,0.6,3.5,0.8,5.2,0.8
		c6.3,0,10.9-3.2,10.9-9.1C185.5,105.3,179,104,172.8,104"/>
	<path id="XMLID_325_" d="M221.9,97.1c0.8,0.1,1,0.2,2.2,0.1l4.6-0.1c3,0,5.5,1,5.5,3.5c0,3.7-4.5,4.7-8.1,4.7
		c-3.2,0-6.4-1.2-6.4-4.5C219.7,99.3,220.7,97.9,221.9,97.1 M221.7,81.3c0-3.9,1.4-6,4.3-6c2.9,0,4.1,2.7,4.1,6.5c0,2.7-1,6-4.3,6
		C222.8,87.9,221.6,85.1,221.7,81.3 M216.5,101.1c0,4.1,5.1,5.8,9.7,5.8c6.5,0,11.1-3,11.1-7.8c0-4.1-3-5.9-8.4-5.8l-5.2,0.1
		c-2.2,0-2.8-0.6-2.8-1.7c0-1.1,1.5-2.6,4.9-2.7c4.8,0,8.4-2.8,8.4-7.3c0-2.2-1.1-4.2-2.8-5.6l5-0.1v-1.3l-6.3,0.5
		c-1.2-0.7-2.6-1.1-4-1.1c-4.3,0-8.2,2.4-8.2,7.2c0,3.4,2.3,6.2,5.3,7.3c-4.4,0.6-5.4,3.1-5.4,4.6c0,1.5,1.1,3.3,3.4,3.8
		C218,97.6,216.5,99.5,216.5,101.1"/>
	<path id="XMLID_329_" d="M205.9,75.5c2.1,0,4.3,1.3,4.4,6h-9.9C200.8,77.9,203.2,75.5,205.9,75.5 M206,95.1c3.6,0,6.8-1.8,8.5-5.9
		l-1.1-0.4c-1.9,3.5-4.7,4-6.6,4c-4.1,0-6.6-3.8-6.6-8.8v-1.3h14.1c-0.5-5.4-3.9-8.6-8.4-8.6c-5.3,0-9.9,4.3-9.9,10.5
		C196.1,90.6,199.7,95.1,206,95.1"/>
	<path id="XMLID_332_" d="M264.7,93.5c-3.6,0-5.8-4.1-5.8-8.9c0-5.5,2.4-8.8,6.1-8.8c3.7,0,6,3.8,6,9
		C270.9,90.3,268.4,93.5,264.7,93.5 M264.8,74.2c-5.4,0-10.5,4.2-10.5,10.1c0,5.6,3.8,10.8,10.4,10.8c6.2,0,10.6-4.5,10.6-10.2
		C275.3,79.1,271.2,74.2,264.8,74.2"/>
	<path id="XMLID_335_" d="M288.2,93.5c-3.6,0-5.8-4.1-5.8-8.9c0-5.5,2.4-8.8,6.1-8.8c3.7,0,6,3.8,6,9
		C294.5,90.3,291.9,93.5,288.2,93.5 M288.4,74.2c-5.4,0-10.5,4.2-10.5,10.1c0,5.6,3.8,10.8,10.4,10.8c6.2,0,10.6-4.5,10.6-10.2
		C298.9,79.1,294.7,74.2,288.4,74.2"/>
	<path id="XMLID_338_" d="M312.1,62.1c-3,0-6.6,1.3-8.2,5.7c-0.5,1.5-0.9,3.3-0.9,6.7v0.8v1.5v17.8h3.9V76.8h6.4v-1.5H307v-1.8
		c0-3.2,0.2-4.9,0.6-6.1c0.9-3.2,2.6-4.1,3.7-4.1c1.4,0,2,1,2.5,2c0.4,1,1.1,1.9,2.4,1.9c1.1,0,1.8-0.9,1.8-1.9
		C317.8,63.2,314.9,62.1,312.1,62.1"/>
	<path id="XMLID_339_" d="M250.5,74.2c-3,0-5.3,2.8-6.2,6.3v-5.6l-3.8,0.2v19.6h3.9V81.4c0.9-2.7,2.8-4.7,3.8-4.7
		c0.6,0,1.4,1.8,3.1,1.8c1,0,2-0.8,2-2C253.4,75.1,252.2,74.2,250.5,74.2"/>
	<path id="XMLID_340_" d="M175.5,93.1c-5.1,0-6-0.3-6-2.7c0-0.9,0-3,0-6.9V64.9c1.3-0.1,2.2-0.2,3.7-0.2c7,0,14.9,2.1,14.9,13.8
		C188,90.1,181.3,93.1,175.5,93.1 M186.8,66.3c-4-2.8-9.9-3.2-15.5-3.2c-2,0-4.1,0-6.2,0.1v31.4h10.7c10.1,0,17-6,17-16
		C192.8,73,190.6,68.9,186.8,66.3"/>
</g>
<g>
	<path id="XMLID_343_" d="M100.2,96.4C100.2,96.4,100.2,96.4,100.2,96.4l26.8-32c-3.9-3.3-9.8-2.8-13.1,1.1l-9.7,11.6
		c-1.1-3.8-3.3-7.4-6.6-10.1c-8.8-7.4-22-6.3-29.4,2.6c-7.4,8.8-6.3,22,2.6,29.4C79.6,106.4,92.8,105.2,100.2,96.4 M75.3,75.6
		c4.1-4.9,11.4-5.5,16.3-1.4c4.9,4.1,5.5,11.4,1.4,16.3l0,0C89,95.4,81.7,96,76.8,91.9C71.9,87.8,71.2,80.5,75.3,75.6"/>
	<path id="XMLID_346_" d="M136.7,99.8c-8.8-7.4-22-6.3-29.4,2.6c0,0,0,0,0,0l-26.8,32c3.9,3.3,9.8,2.8,13.1-1.1l9.7-11.6
		c1.1,3.8,3.3,7.4,6.6,10.1c8.8,7.4,22,6.3,29.4-2.6C146.7,120.4,145.5,107.2,136.7,99.8 M132.2,123.2c-4.1,4.9-11.4,5.5-16.3,1.4
		c-4.9-4.1-5.5-11.4-1.4-16.3c4.1-4.9,11.4-5.5,16.3-1.4C135.6,111,136.3,118.3,132.2,123.2"/>
</g>
</svg>
