<?xml version="1.0" encoding="utf-8"?>
<!-- Generator: Adobe Illustrator 16.0.0, SVG Export Plug-In . SVG Version: 6.00 Build 0)  -->
<!DOCTYPE svg PUBLIC "-//W3C//DTD SVG 1.1//EN" "http://www.w3.org/Graphics/SVG/1.1/DTD/svg11.dtd">
<svg version="1.1" id="Calque_1" xmlns="http://www.w3.org/2000/svg" xmlns:xlink="http://www.w3.org/1999/xlink" x="0px" y="0px"
	 width="322.356px" height="455.197px" viewBox="0 0 322.356 455.197" enable-background="new 0 0 322.356 455.197"
	 xml:space="preserve">
<rect x="-227.564" fill="#55B57A" width="549.92" height="455.197"/>
<g>
	<defs>
		<rect id="SVGID_1_" x="-227.564" width="549.92" height="455.197"/>
	</defs>
	<clipPath id="SVGID_2_">
		<use xlink:href="#SVGID_1_"  overflow="visible"/>
	</clipPath>
	<path clip-path="url(#SVGID_2_)" fill="#BDBCBC" d="M138.788,180.031l-35.644,42.479c106.132,88.652,263.667,75.162,352.128-30.264
		l-42.705-35.834C343.79,238.377,221.333,248.892,138.788,180.031"/>
	<path clip-path="url(#SVGID_2_)" fill="#E9E9E9" d="M487.048,544.652c19.211-22.895-2.596-74.566-49.768-114.148L138.789,180.03
		l35.648-42.485l298.488,250.48C520.097,427.607,526.419,497.73,487.048,544.652"/>
	<path clip-path="url(#SVGID_2_)" fill="#E9E9E9" d="M423.931-159.788l-35.645,42.479c82.148,69.334,93.057,191.756,24.281,273.721
		l42.707,35.834C543.735,86.82,529.665-70.663,423.931-159.788"/>
	<path clip-path="url(#SVGID_2_)" fill="#BDBCBC" d="M103.144,222.51l35.644-42.479c-0.146-0.123-0.297-0.239-0.443-0.362
		C55.793,110.399,44.727-12.317,113.626-94.429c68.899-82.112,191.675-92.522,274.224-23.255c0.146,0.123,0.289,0.251,0.436,0.374
		l35.645-42.479c-0.148-0.123-0.289-0.25-0.436-0.373c-106.137-89.06-263.989-75.674-352.575,29.898
		C-17.664-24.691-3.436,133.088,102.7,222.146C102.847,222.27,102.997,222.387,103.144,222.51"/>
	<path clip-path="url(#SVGID_2_)" fill="#E9E9E9" d="M173.988,137.188C115.119,87.789,107.199-0.037,156.333-58.594l-42.707-35.835
		c-68.899,82.111-57.833,204.828,24.717,274.097c0.147,0.123,0.297,0.24,0.445,0.362l35.648-42.485
		C174.29,137.422,174.135,137.312,173.988,137.188"/>
	<path clip-path="url(#SVGID_2_)" fill="#BDBCBC" d="M113.626-94.43l42.707,35.836c49.134-58.557,137.001-66.008,195.873-16.61
		c0.148,0.124,0.283,0.256,0.43,0.38l35.65-42.484c-0.148-0.125-0.289-0.252-0.436-0.375
		C305.3-186.951,182.527-176.54,113.626-94.43"/>
	<path clip-path="url(#SVGID_2_)" d="M412.567,156.412c68.777-81.965,57.867-204.387-24.281-273.721l-35.65,42.484
		c58.469,49.465,66.236,136.991,17.225,195.401c-49.012,58.409-136.557,65.958-195.423,16.968l-35.648,42.486
		C221.335,248.891,343.79,238.377,412.567,156.412"/>
</g>
<polygon fill="#FFFFFF" points="103.144,222.51 322.356,406.455 322.356,334.062 138.789,180.031 "/>
<g>
	<defs>
		<rect id="SVGID_3_" x="-227.564" width="549.92" height="455.197"/>
	</defs>
	<clipPath id="SVGID_4_">
		<use xlink:href="#SVGID_3_"  overflow="visible"/>
	</clipPath>
	<path clip-path="url(#SVGID_4_)" fill="#BDBCBC" d="M-4.679,349.215l35.644-42.479c-106.132-88.651-263.667-75.162-352.129,30.263
		l42.705,35.836C-209.683,290.868-87.226,280.354-4.679,349.215"/>
	<path clip-path="url(#SVGID_4_)" fill="#FFFFFF" d="M-352.939-15.407c-19.21,22.894,2.597,74.565,49.768,114.147L-4.68,349.215
		l-35.649,42.484L-338.815,141.22C-385.988,101.638-392.311,31.514-352.939-15.407"/>
	<path clip-path="url(#SVGID_4_)" d="M-289.821,689.033l35.644-42.479c-82.149-69.334-93.059-191.756-24.282-273.722l-42.706-35.835
		C-409.627,442.424-395.556,599.908-289.821,689.033"/>
	<path clip-path="url(#SVGID_4_)" fill="#BDBCBC" d="M30.964,306.736l-35.644,42.479c0.147,0.123,0.297,0.24,0.444,0.363
		c82.55,69.268,93.616,191.984,24.717,274.096c-68.9,82.111-191.674,92.523-274.224,23.254c-0.147-0.123-0.288-0.25-0.435-0.373
		l-35.644,42.479c0.147,0.123,0.288,0.252,0.435,0.375c106.136,89.059,263.989,75.672,352.574-29.9
		c88.585-105.57,74.356-263.35-31.779-352.409C31.262,306.976,31.111,306.859,30.964,306.736"/>
	<path clip-path="url(#SVGID_4_)" d="M-39.88,392.058c58.87,49.397,66.79,137.224,17.655,195.78l42.707,35.836
		c68.899-82.111,57.833-204.828-24.717-274.096c-0.147-0.123-0.297-0.24-0.445-0.363l-35.649,42.484
		C-40.181,391.822-40.027,391.934-39.88,392.058"/>
	<path clip-path="url(#SVGID_4_)" fill="#E9E9E9" d="M-278.459,372.833c-68.777,81.966-57.867,204.388,24.282,273.722l35.649-42.486
		c-58.468-49.465-66.236-136.99-17.224-195.4c49.012-58.41,136.556-65.958,195.423-16.969l35.65-42.485
		C-87.226,280.354-209.682,290.867-278.459,372.833"/>
</g>
<polygon points="-227.563,162.186 -4.679,349.215 30.964,306.735 -227.563,89.803 "/>
</svg>
