<?xml version="1.0" encoding="utf-8"?>
<!-- Generator: Adobe Illustrator 16.0.0, SVG Export Plug-In . SVG Version: 6.00 Build 0)  -->
<!DOCTYPE svg PUBLIC "-//W3C//DTD SVG 1.1//EN" "http://www.w3.org/Graphics/SVG/1.1/DTD/svg11.dtd">
<svg version="1.1" id="Calque_1" xmlns="http://www.w3.org/2000/svg" xmlns:xlink="http://www.w3.org/1999/xlink" x="0px" y="0px"
	 width="145.14px" height="62.555px" viewBox="0 0 145.14 62.555" enable-background="new 0 0 145.14 62.555" xml:space="preserve">
<g>
	<g>
		<defs>
			<rect id="SVGID_1_" x="8.203" y="13.446" width="128.735" height="35.662"/>
		</defs>
		<use xlink:href="#SVGID_1_"  overflow="visible" fill="#FFFFFF"/>
		<clipPath id="SVGID_2_">
			<use xlink:href="#SVGID_1_"  overflow="visible"/>
		</clipPath>
		<path clip-path="url(#SVGID_2_)" fill="#FFFFFF" d="M81.372,47.796c-0.795,0-1.282-0.465-1.282-1.592c0,0-0.019-0.719-0.019-3.34
			v-2.854h2.756v-0.719h-2.756v-3.307h-0.389l-1.379,3.307h-1.612v0.602l1.495,0.117v6.484c0,1.611,1.049,2.293,2.311,2.293
			c0.758,0,1.768-0.234,2.758-1.4l-0.252-0.271C82.536,47.505,81.876,47.796,81.372,47.796"/>
		<path clip-path="url(#SVGID_2_)" fill="#FFFFFF" d="M72.032,47.661c-1.961,0-3.145-1.807-3.145-4.193v-0.641h6.756
			c-0.232-2.604-1.883-4.098-4.039-4.098c-2.543,0-4.717,2.039-4.717,5.029c0,2.854,1.709,5.029,4.737,5.029
			c1.708,0,3.263-0.855,4.058-2.816l-0.504-0.215C74.246,47.409,72.927,47.661,72.032,47.661 M71.565,39.39
			c0.992,0,2.039,0.641,2.117,2.855h-4.738C69.14,40.515,70.267,39.39,71.565,39.39"/>
		<path clip-path="url(#SVGID_2_)" fill="#FFFFFF" d="M89.071,47.661c-1.963,0-3.146-1.807-3.146-4.193v-0.641h6.758
			c-0.233-2.604-1.885-4.098-4.039-4.098c-2.543,0-4.719,2.039-4.719,5.029c0,2.854,1.709,5.029,4.738,5.029
			c1.708,0,3.262-0.855,4.059-2.816l-0.506-0.215C91.284,47.409,89.964,47.661,89.071,47.661 M88.604,39.39
			c0.99,0,2.039,0.641,2.117,2.855h-4.738C86.179,40.515,87.304,39.39,88.604,39.39"/>
		<path clip-path="url(#SVGID_2_)" fill="#FFFFFF" d="M119.624,47.622c-0.697,0-0.873-0.699-0.854-1.67l0.059-4.719
			c0.02-1.824-1.476-2.465-3.146-2.465c-1.825,0-3.437,0.912-3.437,2.213c0,0.523,0.369,0.912,0.854,0.912
			c0.737,0,0.951-0.582,0.873-1.223c-0.097-0.836,0.486-1.301,1.515-1.301c1.166,0,1.476,0.756,1.476,1.826v2.25h-0.136
			c-3.125,0-5.262,0.836-5.262,2.971c0,1.34,1.029,2.389,2.602,2.389c0.971,0,2.039-0.35,2.855-1.631
			c0.174,1.107,0.891,1.553,1.746,1.553c0.699,0,1.475-0.311,2.098-1.357l-0.272-0.234
			C120.245,47.485,119.936,47.622,119.624,47.622 M116.985,46.63c-0.447,0.836-1.398,1.146-2.039,1.146
			c-0.797,0-1.457-0.504-1.457-1.553c0-1.146,0.816-2.176,3.496-2.35V46.63z"/>
		<path clip-path="url(#SVGID_2_)" fill="#FFFFFF" d="M106.907,47.661c-2.037,0-3.203-1.826-3.203-4.213
			c0-2.662,1.631-4.078,2.893-4.078c1.845,0,1.165,1.922,2.622,1.922c0.387,0,0.815-0.33,0.815-0.875
			c0-1.066-1.981-1.668-3.301-1.668c-2.913,0-5.029,2.037-5.029,5.047c0,2.719,1.65,4.99,4.737,4.99
			c1.242,0,2.933-0.445,3.845-2.582l-0.504-0.234C108.907,47.505,107.665,47.661,106.907,47.661"/>
		<path clip-path="url(#SVGID_2_)" fill="#FFFFFF" d="M133.908,38.749c-1.476,0-2.659,0.834-3.397,2.291
			c-0.351-1.553-1.34-2.291-2.875-2.291c-1.416,0-2.58,0.814-3.26,2.135v-1.863l-1.881,0.102l0.012,9.393h1.888v-7.01
			c0.583-1.029,1.612-1.592,2.368-1.592c1.632,0,2.021,1.164,2.021,2.914v5.688h1.884v-6.039c0-0.311-0.021-0.602-0.059-0.873
			c0.602-1.088,1.63-1.689,2.427-1.689c1.632,0,2.019,1.164,2.019,2.914v5.688h1.884v-6.039
			C136.938,39.913,135.87,38.749,133.908,38.749"/>
		<path clip-path="url(#SVGID_2_)" fill="#FFFFFF" d="M99.849,38.749c-1.455,0-2.544,1.359-2.951,2.99V39.04l-1.806,0.1v9.375h1.883
			v-6.291c0.429-1.281,1.341-2.232,1.806-2.232c0.293,0,0.68,0.873,1.496,0.873c0.484,0,0.951-0.369,0.951-0.951
			C101.228,39.214,100.644,38.749,99.849,38.749"/>
		<path clip-path="url(#SVGID_2_)" fill="#FFFFFF" d="M60.538,33.487c-0.833,0-1.678,0.023-3.65,0.023v15.004h2.078v-6.756
			c0.873,0.271,1.689,0.389,2.465,0.389c3.01,0,5.224-1.535,5.224-4.369C66.654,34.089,63.509,33.487,60.538,33.487 M60.519,41.446
			c-0.504,0-0.99-0.078-1.553-0.213v-6.893c0.504-0.078,1.088-0.117,1.65-0.117c1.98,0,3.922,0.738,3.922,3.613
			C64.538,40.397,62.753,41.446,60.519,41.446"/>
		<path clip-path="url(#SVGID_2_)" fill="#FFFFFF" d="M81.44,32.087c0,1.979,2.428,2.795,4.621,2.795
			c3.125,0,5.301-1.418,5.301-3.707c0-1.943-1.417-2.836-4.039-2.797l-2.504,0.039c-1.068,0.02-1.34-0.311-1.34-0.797
			c0-0.545,0.738-1.225,2.349-1.281c2.312,0.02,4.021-1.359,4.021-3.494c0-1.031-0.525-2.021-1.34-2.699l2.394-0.033v-0.645
			l-3.015,0.25c-0.564-0.311-1.224-0.504-1.922-0.504c-2.078,0-3.924,1.164-3.943,3.436c-0.019,1.631,1.088,2.971,2.525,3.477
			c-2.117,0.309-2.582,1.494-2.582,2.193c0,0.738,0.543,1.592,1.61,1.824C82.198,30.417,81.44,31.327,81.44,32.087 M83.945,22.649
			c0.019-1.844,0.68-2.873,2.038-2.873c1.398,0,1.962,1.281,1.941,3.125c-0.019,1.281-0.484,2.875-2.037,2.875
			C84.489,25.776,83.925,24.437,83.945,22.649 M84.042,30.202c0.369,0.039,0.467,0.078,1.029,0.059l2.213-0.039
			c1.457-0.02,2.641,0.465,2.641,1.67c0,1.768-2.135,2.232-3.863,2.232c-1.514,0-3.049-0.582-3.049-2.154
			C83.013,31.231,83.46,30.591,84.042,30.202"/>
		<path clip-path="url(#SVGID_2_)" fill="#FFFFFF" d="M76.44,29.251c1.707,0,3.261-0.854,4.058-2.814l-0.506-0.215
			c-0.933,1.65-2.251,1.902-3.146,1.902c-1.959,0-3.145-1.805-3.145-4.191V23.29h6.757c-0.231-2.602-1.883-4.096-4.038-4.096
			c-2.544,0-4.719,2.037-4.719,5.029C71.702,27.077,73.411,29.251,76.44,29.251 M76.382,19.854c0.99,0,2.038,0.641,2.116,2.854
			h-4.737C73.955,20.979,75.08,19.854,76.382,19.854"/>
		<path clip-path="url(#SVGID_2_)" fill="#FFFFFF" d="M104.581,19.214c-2.603,0-5.011,2-5.011,4.854
			c0,2.699,1.825,5.184,4.951,5.184c2.971,0,5.087-2.154,5.087-4.873C109.608,21.562,107.628,19.214,104.581,19.214 M104.503,28.476
			c-1.709,0-2.797-1.943-2.797-4.252c0-2.623,1.146-4.234,2.913-4.234c1.747,0,2.873,1.826,2.873,4.291
			C107.492,26.921,106.27,28.476,104.503,28.476"/>
		<path clip-path="url(#SVGID_2_)" fill="#FFFFFF" d="M115.843,19.214c-2.602,0-5.01,2-5.01,4.854c0,2.699,1.825,5.184,4.952,5.184
			c2.97,0,5.086-2.154,5.086-4.873C120.871,21.562,118.892,19.214,115.843,19.214 M115.765,28.476c-1.707,0-2.795-1.943-2.795-4.252
			c0-2.623,1.146-4.234,2.912-4.234c1.748,0,2.873,1.826,2.873,4.291C118.755,26.921,117.532,28.476,115.765,28.476"/>
		<path clip-path="url(#SVGID_2_)" fill="#FFFFFF" d="M127.178,13.446c-1.437,0-3.146,0.641-3.922,2.738
			c-0.252,0.699-0.407,1.572-0.407,3.184v0.389v0.717v8.506h1.883v-8.506h3.067v-0.717h-3.067v-0.875
			c0-1.533,0.098-2.328,0.271-2.93c0.428-1.535,1.243-1.963,1.768-1.963c0.66,0,0.971,0.486,1.184,0.971
			c0.214,0.486,0.525,0.914,1.166,0.914c0.504,0,0.854-0.408,0.854-0.932C129.915,13.952,128.538,13.446,127.178,13.446"/>
		<path clip-path="url(#SVGID_2_)" fill="#FFFFFF" d="M97.735,19.214c-1.457,0-2.545,1.357-2.951,2.99v-2.699l-1.807,0.1v9.375
			h1.883v-6.291c0.429-1.281,1.341-2.232,1.807-2.232c0.291,0,0.679,0.873,1.496,0.873c0.484,0,0.951-0.369,0.951-0.951
			C99.114,19.679,98.53,19.214,97.735,19.214"/>
		<path clip-path="url(#SVGID_2_)" fill="#FFFFFF" d="M67.276,15.466c-1.903-1.34-4.758-1.535-7.418-1.535
			c-0.969,0-1.977,0.021-2.971,0.035v15.014h5.127c4.854,0,8.135-2.875,8.135-7.631C70.149,18.669,69.062,16.708,67.276,15.466
			 M61.858,28.261c-2.446,0-2.875-0.135-2.875-1.281c0-0.426-0.019-1.436-0.019-3.281v-8.893c0.603-0.059,1.03-0.098,1.748-0.098
			c3.358,0,7.126,1.01,7.126,6.602C67.839,26.845,64.635,28.261,61.858,28.261"/>
		<path clip-path="url(#SVGID_2_)" fill="#FFFFFF" d="M13.937,19.88c1.968-2.346,5.466-2.652,7.811-0.682
			c2.346,1.967,2.652,5.461,0.687,7.807l-0.002,0.004c-1.97,2.348-5.466,2.652-7.812,0.684
			C12.272,25.724,11.968,22.226,13.937,19.88 M25.829,29.86c0.002-0.002,0.002-0.002,0.002-0.004l12.83-15.287
			c-1.878-1.574-4.676-1.33-6.25,0.547l-4.646,5.537c-0.532-1.834-1.594-3.535-3.165-4.854c-4.224-3.545-10.519-2.994-14.062,1.23
			c-3.543,4.223-2.991,10.518,1.231,14.059C15.99,34.634,22.286,34.083,25.829,29.86"/>
		<path clip-path="url(#SVGID_2_)" fill="#FFFFFF" d="M41.12,42.69c-1.968,2.348-5.466,2.652-7.812,0.684
			c-2.344-1.967-2.65-5.465-0.683-7.812c1.97-2.344,5.466-2.65,7.812-0.682C42.783,36.849,43.089,40.345,41.12,42.69 M43.288,31.481
			c-4.222-3.543-10.518-2.992-14.061,1.23c-0.002,0.002-0.004,0.004-0.004,0.004L16.396,48.003c1.877,1.574,4.675,1.33,6.25-0.547
			l4.646-5.537c0.532,1.834,1.594,3.535,3.165,4.854c4.224,3.543,10.519,2.992,14.062-1.23S47.511,35.024,43.288,31.481"/>
	</g>
</g>
</svg>
